# xmcd
#
# Track frame offsets: 
#        150
#        13728
#        27075
#        42032
#        56650
#        78844
#        100161
#        113222
#        143148
#        163010
#        182358
#        199337
#        218271
#        239568
#        260032
#
# Disc length: 3653 seconds
#
# Revision: 0
# Processed by: cddbd v1.5.2PL0 Copyright (c) Steve Scherf et al.
# Submitted via: ExactAudioCopyFreeDBPlugin 1.0
#
DISCID=c40e430f
DTITLE=Sly Stone - I'm Back! Family and Friends
DYEAR=2011
DGENRE=Soul
TTITLE0=Dance to the Music feat. Ray Manzarek
TTITLE1=Everyday People feat. Ann Wilson
TTITLE2=Family Affair
TTITLE3=Stand! feat. Carmine Appice and Ernie Watts
TTITLE4=Thank You (Falettinme Be Mice Elf Agin) feat. Johnny Winter
TTITLE5=(I Want to Take You) Higher feat. Jeff Beck
TTITLE6=Hot Fun in the Summertime feat. Bootsy Collins
TTITLE7=Dance to the Music [Extended Mix]
TTITLE8=Plain Jane
TTITLE9=His Eye Is on the Sparrow
TTITLE10=Get Away
TTITLE11=Dance to the Music [Club Mix]
TTITLE12=Family Affair [Dubstep Mix]
TTITLE13=Thank You (Falettinme Be Mice Elf Agin) [Electro Club Mix]
TTITLE14=If You Want Me to Stay
EXTD=
EXTT0=
EXTT1=
EXTT2=
EXTT3=
EXTT4=
EXTT5=
EXTT6=
EXTT7=
EXTT8=
EXTT9=
EXTT10=
EXTT11=
EXTT12=
EXTT13=
EXTT14=
PLAYORDER=
